<?xml version="1.0" encoding="utf-8"?>
<!-- Generator: Adobe Illustrator 27.5.0, SVG Export Plug-In . SVG Version: 6.00 Build 0)  -->
<svg version="1.1" xmlns="http://www.w3.org/2000/svg" xmlns:xlink="http://www.w3.org/1999/xlink" x="0px" y="0px"
	 viewBox="0 0 500 500" style="enable-background:new 0 0 500 500;" xml:space="preserve">
<g id="Background_2">
	<g>
		<g>
			<g>
				<g>
					<rect y="382.398" style="fill:#D1E3FF;" width="500" height="0.25"/>
					<rect x="101.172" y="392.989" style="fill:#D1E3FF;" width="34.404" height="0.25"/>
					<rect x="74.48" y="393.114" style="fill:#D1E3FF;" width="19.359" height="0.25"/>
					<rect x="175" y="392.528" style="fill:#D1E3FF;" width="39.239" height="0.25"/>
					<rect x="198.778" y="388.972" style="fill:#D1E3FF;" width="115.778" height="0.25"/>
					<rect x="360.681" y="389.097" style="fill:#D1E3FF;" width="52.985" height="0.25"/>
					<path style="fill:#D1E3FF;" d="M237.014,337.8H43.915c-3.147,0-5.708-2.561-5.708-5.708V60.66c0-3.147,2.561-5.708,5.708-5.708
						h193.099c3.146,0,5.707,2.561,5.707,5.708v271.432C242.721,335.239,240.16,337.8,237.014,337.8z M43.915,55.203
						c-3.01,0-5.458,2.448-5.458,5.458v271.432c0,3.01,2.448,5.458,5.458,5.458h193.099c3.009,0,5.457-2.448,5.457-5.458V60.66
						c0-3.009-2.448-5.458-5.457-5.458H43.915z"/>
					<path style="fill:#D1E3FF;" d="M453.31,337.8H260.212c-3.146,0-5.707-2.561-5.707-5.708V60.66c0-3.147,2.561-5.708,5.707-5.708
						H453.31c3.148,0,5.708,2.561,5.708,5.708v271.432C459.019,335.239,456.458,337.8,453.31,337.8z M260.212,55.203
						c-3.009,0-5.457,2.448-5.457,5.458v271.432c0,3.01,2.448,5.458,5.457,5.458H453.31c3.01,0,5.458-2.448,5.458-5.458V60.66
						c0-3.009-2.448-5.458-5.458-5.458H260.212z"/>
				</g>
			</g>
		</g>
		<g>
			<g>
				<g>
					<rect x="175" y="84.976" style="fill:#D1E3FF;" width="256.528" height="115.714"/>
					<rect x="177.542" y="84.976" style="fill:#E3EEFF;" width="259.427" height="115.714"/>
					<rect x="175" y="200.691" style="fill:#D1E3FF;" width="256.528" height="10.111"/>
					<rect x="186.607" y="200.691" style="fill:#E3EEFF;" width="259.427" height="10.111"/>
					
						<rect x="257.016" y="20.738" transform="matrix(-1.836970e-16 1 -1 -1.836970e-16 450.0893 -164.4222)" style="fill:#F5FCFF;" width="100.479" height="244.192"/>
					<polygon style="fill:#FFFFFF;" points="249.782,193.073 294.491,92.594 340.244,92.594 295.535,193.073 					"/>
					<path style="fill:#E2EEFF;" d="M188.686,176.282c-0.3,0-0.544-0.244-0.544-0.544V97.55c0-0.3,0.244-0.544,0.544-0.544
						c0.3,0,0.544,0.244,0.544,0.544v78.188C189.23,176.039,188.987,176.282,188.686,176.282z"/>
					<polygon style="fill:#FFFFFF;" points="312.736,193.073 357.445,92.594 373.274,92.594 328.565,193.073 					"/>
					
						<rect x="378.628" y="142.35" transform="matrix(-1.836970e-16 1 -1 -1.836970e-16 571.7016 -286.0345)" style="fill:#D1E3FF;" width="100.479" height="0.967"/>
					<polygon style="fill:#D1E3FF;" points="438.771,100.273 182.242,100.273 181.541,95.555 438.07,95.555 					"/>
					<polygon style="fill:#D1E3FF;" points="438.771,108.063 182.242,108.063 181.541,103.345 438.07,103.345 					"/>
					<polygon style="fill:#D1E3FF;" points="438.771,115.853 182.242,115.853 181.541,111.135 438.07,111.135 					"/>
					<polygon style="fill:#D1E3FF;" points="438.771,123.642 182.242,123.642 181.541,118.924 438.07,118.924 					"/>
					<polygon style="fill:#D1E3FF;" points="438.771,131.432 182.242,131.432 181.541,126.714 438.07,126.714 					"/>
					<polygon style="fill:#D1E3FF;" points="438.771,139.222 182.242,139.222 181.541,134.504 438.07,134.504 					"/>
				</g>
				<g>
					<path style="fill:#D1E3FF;" d="M359.416,174.674c7.465,1.03,12.085-15.196-4.405-28.935
						C355.903,161.644,346.401,172.88,359.416,174.674z"/>
					<path style="fill:#CADEFC;" d="M364.12,184.927c10.824-7.586,3.416-34.099-30.086-32.178
						C348.529,172.264,345.248,198.153,364.12,184.927z"/>
					<path style="fill:#CADEFC;" d="M360.3,184.749c-7.196-7.749,3.046-27.248,28.931-20.127
						C374.619,177.457,372.845,198.259,360.3,184.749z"/>
					<g>
						<polygon style="fill:#F3F8FF;" points="349.156,200.691 371.402,200.691 373.081,185.898 347.477,185.898 						"/>
						
							<rect x="345.819" y="185.277" transform="matrix(-1 -1.224647e-16 1.224647e-16 -1 720.5583 373.8192)" style="fill:#F3F8FF;" width="28.92" height="3.265"/>
					</g>
				</g>
				<path style="fill:#CADEFC;" d="M239.534,181.889c0,0,1.118,18.871,43.979,18.871c42.861,0,43.979-18.871,43.979-18.871H239.534z
					"/>
			</g>
			<g>
				<g>
					<rect x="71.537" y="264.572" style="fill:#E3EEFF;" width="27.318" height="112.517"/>
					<rect x="76.783" y="377.089" style="fill:#E3EEFF;" width="219.826" height="5.309"/>
					
						<rect x="98.855" y="264.572" transform="matrix(-1 -1.224647e-16 1.224647e-16 -1 400.7091 641.6613)" style="fill:#F3F8FF;" width="202.999" height="112.517"/>
					
						<rect x="109.595" y="307.09" transform="matrix(-1 -1.224647e-16 1.224647e-16 -1 400.7091 641.6613)" style="fill:#E3EEFF;" width="181.519" height="27.481"/>
					
						<rect x="109.595" y="339.583" transform="matrix(-1 -1.224647e-16 1.224647e-16 -1 400.7091 706.6481)" style="fill:#E3EEFF;" width="181.519" height="27.481"/>
					<path style="fill:#F3F8FF;" d="M254.511,310.102H146.198c-1.036,0-1.884-0.848-1.884-1.884l0,0
						c0-1.036,0.848-1.884,1.884-1.884h108.314c1.036,0,1.884,0.848,1.884,1.884l0,0
						C256.396,309.254,255.548,310.102,254.511,310.102z"/>
					
						<rect x="109.595" y="274.597" transform="matrix(-1 -1.224647e-16 1.224647e-16 -1 400.7091 576.6744)" style="fill:#E3EEFF;" width="181.519" height="27.481"/>
					<path style="fill:#F3F8FF;" d="M254.511,277.608H146.198c-1.036,0-1.884-0.848-1.884-1.884l0,0
						c0-1.036,0.848-1.884,1.884-1.884h108.314c1.036,0,1.884,0.848,1.884,1.884l0,0
						C256.396,276.761,255.548,277.608,254.511,277.608z"/>
					<path style="fill:#F3F8FF;" d="M254.511,342.595H146.198c-1.036,0-1.884-0.848-1.884-1.884l0,0
						c0-1.036,0.848-1.884,1.884-1.884h108.314c1.036,0,1.884,0.848,1.884,1.884l0,0
						C256.396,341.747,255.548,342.595,254.511,342.595z"/>
				</g>
				<rect x="98.855" y="255.333" style="fill:#E3EEFF;" width="206.639" height="9.239"/>
				
					<rect x="67.72" y="255.333" transform="matrix(-1 -1.224647e-16 1.224647e-16 -1 166.5751 519.9056)" style="fill:#D1E3FF;" width="31.135" height="9.239"/>
			</g>
			<g>
				<g>
					<rect x="66.556" y="110.229" style="fill:#D1E3FF;" width="65.488" height="71.91"/>
					<path style="fill:#E2EEFF;" d="M123.965,113.405c-0.095,0.001-0.191-0.024-0.278-0.077c-0.155-0.093-15.565-9.257-20.42-9.257
						c-4.849,0-19.543,9.158-19.691,9.251c-0.255,0.159-0.59,0.082-0.75-0.173c-0.159-0.255-0.082-0.59,0.173-0.75
						c0.614-0.384,15.109-9.416,20.268-9.416c5.153,0,20.335,9.026,20.978,9.41c0.258,0.154,0.342,0.488,0.188,0.746
						C124.331,113.311,124.15,113.405,123.965,113.405z"/>
					<rect x="71.492" y="110.229" style="fill:#EEF9FF;" width="67.644" height="71.91"/>
					
						<rect x="75.026" y="118.029" transform="matrix(-1.836970e-16 1 -1 -1.836970e-16 251.4986 40.8701)" style="fill:#FFFFFF;" width="60.576" height="56.31"/>
				</g>
			</g>
			<g>
				<path style="fill:#E2EEFF;" d="M119.018,160.433H91.61c-0.3,0-0.544-0.244-0.544-0.544v-27.408c0-0.3,0.244-0.544,0.544-0.544
					h27.408c0.3,0,0.544,0.244,0.544,0.544v27.408C119.562,160.189,119.318,160.433,119.018,160.433z M92.154,159.345h26.32v-26.32
					h-26.32V159.345z"/>
				<polygon style="fill:#E2EEFF;" points="96.406,137.277 114.222,155.093 114.222,137.277 				"/>
			</g>
			<g>
				
					<rect x="327.352" y="336.363" transform="matrix(-1 -1.224647e-16 1.224647e-16 -1 693.226 718.8868)" style="fill:#E3EEFF;" width="38.522" height="46.16"/>
				<polygon style="fill:#E3EEFF;" points="327.352,336.363 365.874,336.363 358.145,322.591 319.623,322.591 				"/>
				<polygon style="fill:#F3F8FF;" points="403.425,322.591 441.947,322.591 434.218,336.363 395.696,336.363 				"/>
				<rect x="365.874" y="336.363" style="fill:#F3F8FF;" width="68.344" height="46.16"/>
				<rect x="365.329" y="351.613" style="fill:#E3EEFF;" width="15.66" height="15.66"/>
			</g>
		</g>
	</g>
</g>
<g id="Background_1" style="display:none;">
	<path style="display:inline;opacity:0.4;fill:#D4E8FF;" d="M118.972,164.484C58.41,216.081,74.651,314.45,143.716,349.683
		c63.736,32.514,160.702,13.388,207.029-41.856c43.949-52.407,33.434-140.851-29.535-172.634
		C267.116,107.891,164.329,125.84,118.972,164.484z"/>
</g>
<g id="Objects">
	<g>
		<ellipse style="fill:#F0F6FF;" cx="250" cy="416.238" rx="193.889" ry="11.323"/>
		<g>
			<path style="opacity:0.2;fill:#0053CC;" d="M99.834,348.483c15.935,23.97,63.047,27.704,83.055,13.376
				c28.404-20.341,26.827-74.096,56.328-93.151c54.24-35.034,120.527,61.121,162.45-34.375v178.445H99.834V348.483z"/>
			<path style="fill:#4190EF;" d="M150.85,370.69c-4.992,0-10.133-0.454-15.239-1.391c-16.486-3.022-29.317-10.331-36.131-20.581
				c-0.13-0.195-0.077-0.46,0.119-0.59c0.195-0.13,0.46-0.076,0.589,0.119c6.588,9.91,19.556,17.278,35.577,20.215
				c17.98,3.297,36.379,0.568,46.876-6.948c13.837-9.909,20.645-28.184,27.227-45.857c6.873-18.45,13.979-37.529,29.118-47.307
				c22.36-14.44,46.827-6.733,70.491,0.721c34.548,10.886,67.184,21.167,91.801-34.909c0.096-0.215,0.348-0.311,0.561-0.219
				c0.215,0.095,0.314,0.346,0.219,0.561c-11.342,25.835-24.975,39.506-42.904,43.027c-15.803,3.1-32.382-2.119-49.932-7.648
				c-23.475-7.396-47.749-15.042-69.773-0.817c-14.901,9.624-21.958,28.568-28.782,46.89c-6.627,17.792-13.48,36.189-27.529,46.25
				C175.456,367.704,163.646,370.69,150.85,370.69z"/>
			<g>
				<g>
					<rect x="82.051" y="325.777" style="fill:#004DAA;" width="42.79" height="87.001"/>
					<rect x="152.489" y="353.667" style="fill:#004DAA;" width="42.79" height="59.111"/>
					<rect x="222.926" y="303.731" style="fill:#004DAA;" width="42.79" height="109.047"/>
					<rect x="293.364" y="243.812" style="fill:#004DAA;" width="42.79" height="168.965"/>
					<rect x="363.802" y="160.792" style="fill:#004DAA;" width="42.789" height="251.986"/>
				</g>
				<g>
					<rect x="93.408" y="325.777" style="fill:#0053CC;" width="42.789" height="87.001"/>
					<rect x="163.846" y="353.667" style="fill:#0053CC;" width="42.79" height="59.111"/>
					<rect x="234.284" y="303.731" style="fill:#0053CC;" width="42.79" height="109.047"/>
					<rect x="304.722" y="243.812" style="fill:#0053CC;" width="42.79" height="168.965"/>
					<rect x="375.16" y="160.792" style="fill:#0053CC;" width="42.79" height="251.986"/>
				</g>
			</g>
			<path style="fill:#0053CC;" d="M329.743,196.129c-5.726-5.726-15.004-5.721-20.725,0c-5.726,5.726-5.73,15.004-0.004,20.729
				l10.362,10.362l10.367-10.367C335.464,211.132,335.464,201.85,329.743,196.129z"/>
		</g>
		<g>
			<path style="fill:#0F264C;" d="M228.64,108.114c1.241-3.796,1.871-24.508-18.924-19.515c-15.447,3.709-10.848,23.37-25.875,25.59
				c0,0,22.12,10.499,29.315-4.016c5.676-11.451,11.558-1.061,11.558-1.061L228.64,108.114z"/>
			<path style="fill:#0053CC;" d="M224.389,111.722c-0.931-0.847-1.333-2.944-0.611-3.278c0.722-0.333,4.53-1.403,5.597-1.215
				c1.222,0.215,0.989,3.16,0.989,3.16L224.389,111.722z"/>
			<path style="fill:#0F264C;" d="M242.259,117.497c0.462,2.628,0.658,11.338-5.425,13.254
				C230.75,132.667,242.259,117.497,242.259,117.497z"/>
			<path style="fill:#FF8B7B;" d="M239.728,156.856l0.39,0.511l0.477,0.591c0.327,0.399,0.656,0.804,1.013,1.195
				c0.692,0.795,1.447,1.553,2.21,2.299c1.516,1.508,3.16,2.901,4.894,4.163c1.737,1.257,3.521,2.469,5.43,3.461
				c0.933,0.541,1.926,0.956,2.896,1.428c0.167,0.081,0.134,0.057,0.161,0.076c0.015,0.015,0.054,0.016,0.078,0.033
				c0.068,0.02,0.159,0.039,0.276,0.051c0.236,0.023,0.567,0.003,0.943-0.053c1.561-0.238,3.544-1.146,5.401-2.191
				c1.891-1.05,3.747-2.312,5.599-3.612c1.847-1.31,3.654-2.717,5.436-4.166c1.8-1.419,3.569-2.941,5.287-4.42l2.795,2.655
				c-3.066,3.723-6.355,7.13-9.979,10.358c-1.804,1.621-3.721,3.141-5.806,4.563c-2.119,1.389-4.328,2.738-7.357,3.507
				c-0.769,0.178-1.608,0.294-2.542,0.283c-0.468-0.008-0.959-0.054-1.465-0.148c-0.258-0.059-0.51-0.106-0.77-0.19
				c-0.25-0.078-0.563-0.186-0.661-0.229c-1.17-0.472-2.366-0.897-3.502-1.456c-2.305-1.045-4.534-2.273-6.621-3.709
				c-2.092-1.43-4.078-3.013-5.933-4.751c-0.913-0.887-1.804-1.795-2.649-2.764c-0.43-0.475-0.84-0.977-1.252-1.485l-0.601-0.794
				c-0.209-0.285-0.376-0.516-0.639-0.91L239.728,156.856z"/>
			<path style="fill:#0F264C;" d="M231.189,151.55c9.172,0.783,14.756,9.59,14.756,9.59l-10.983,10.767
				c0,0-7.494-7.559-8.175-11.713C226.077,155.87,226.482,151.148,231.189,151.55z"/>
			<path style="fill:#FF8B7B;" d="M279.628,158.12l0.371-6.787l6.949,3.869c0,0-1.958,3.773-4.914,4.899L279.628,158.12z"/>
			<polygon style="fill:#FF8B7B;" points="284.456,146.341 289.08,150.176 286.948,155.202 279.999,151.333 			"/>
			<polygon style="fill:#FF8B7B;" points="169.594,346.083 176.946,346.802 184.596,329.303 177.244,328.584 			"/>
			<polygon style="fill:#FF8B7B;" points="103.348,300.387 106.662,307.239 123.595,301.768 120.281,294.916 			"/>
			<path style="fill:#14365B;" d="M108.505,306.795l0.585-8.531c0.021-0.31-0.177-0.577-0.477-0.642l-6.683-1.435
				c-0.693-0.149-1.397,0.408-1.434,1.125c-0.153,2.978-0.076,4.423-0.333,8.174c-0.158,2.308-0.847,7.39-1.066,10.577
				c-0.214,3.117,2.921,3.573,3.298,2.265c1.688-5.863,3.735-8.408,5.557-10.298C108.28,307.692,108.474,307.249,108.505,306.795z"
				/>
			<path style="fill:#14365B;" d="M177.922,344.53h-9.029c-0.328,0-0.625,0.228-0.713,0.549l-1.963,7.144
				c-0.204,0.741,0.342,1.422,1.102,1.429c3.182,0.029,4.69,0.015,8.661,0.015c2.443,0,8.762,0,12.136,0
				c3.299,0,3.989-3.336,2.624-3.638c-6.121-1.355-9.65-3.223-11.538-5.005C178.86,344.703,178.403,344.53,177.922,344.53z"/>
			<polygon style="fill:#EA7063;" points="184.593,329.307 180.651,338.327 172.981,338.327 177.238,328.589 			"/>
			<polygon style="fill:#EA7063;" points="120.275,294.916 123.591,301.771 114.861,304.587 111.546,297.733 			"/>
			<path style="fill:#0F264C;" d="M238.619,154.087c0,0,2.907,2.14-17.489,42.529c-11.695-3.7-23.781-7.524-29.472-9.324
				c4.29-11.838,6.644-19.23,8.699-45.66c0,0,6.6,0.61,13.037,2.311c5.035,1.33,9.149,2.457,13.382,4.235
				C232.358,150.52,238.619,154.087,238.619,154.087z"/>
			<path style="fill:#FF8B7B;" d="M219.487,129.293c-0.518,4.573-2.172,12.729-6.093,14.649c0,0-0.205,4.74,7.796,7.272
				c8.798,2.783,5.586-3.037,5.586-3.037c-4.439-2.666-3.188-6.189-1.293-9.27L219.487,129.293z"/>
			<path style="fill:#0053CC;" d="M216.521,140c-0.549-0.458-1,1.124-1.179,1.761c-0.049,0.173,0.007,0.351,0.143,0.469
				c1.077,0.93,5.775,3.64,8.453,2.788c0.122-0.039,0.212-0.147,0.216-0.275c0.013-0.401-0.173-1.178-0.105-1.817
				c0.018-0.166-0.109-0.304-0.275-0.309C221.98,142.566,219.351,142.361,216.521,140z"/>
			<path style="fill:#EA7063;" d="M221.931,133.214l3.55,5.687c-0.451,0.728-0.861,1.482-1.164,2.245
				c-1.751-0.845-3.995-3.363-3.582-5.346C220.941,134.812,221.634,133.611,221.931,133.214z"/>
			<path style="fill:#FF8B7B;" d="M221.569,119.104c-2.516,7.122-3.734,10.083-1.738,15.132c3.002,7.595,12.3,9.128,16.894,2.901
				c4.135-5.605,7.555-16.311,1.932-21.953C233.115,109.625,224.085,111.982,221.569,119.104z"/>
			<path style="fill:#0F264C;" d="M220.148,124.984c3.685-0.428,9.802-4.428,10.216-7.484c0,0,7.365,5.079,11.242,2.667
				c3.394-2.111-4.217-12-13.273-10.556C218.48,111.183,217.222,119.944,220.148,124.984z"/>
			<path style="fill:#FF8B7B;" d="M217.835,124.91c-0.466,1.495-0.199,3.066,0.417,4.196c0.926,1.7,2.772,1.205,3.672-0.393
				c0.81-1.438,1.304-4.056-0.182-5.221C220.277,122.345,218.369,123.201,217.835,124.91z"/>
			<path style="fill:#9FC6FF;" d="M221.13,196.616c0,0,1.039,60.398-6.892,82.217c-7.603,20.918-30.27,56.879-30.27,56.879
				l-13.136-0.338c0,0,20.868-45.53,24.291-63.542c5.677-29.872,4.424-82.045,4.424-82.045L221.13,196.616z"/>
			<polygon style="fill:#0053CC;" points="185.821,336.393 169.594,335.979 170.533,330.993 188.25,331.833 			"/>
			<path style="fill:#77B3FC;" d="M209.33,201.78l-3.53-10.01l-6.25-1.98c0,0,0.57,23.73-0.8,48.34
				C204.417,227.25,209.331,207.25,209.33,201.78z"/>
			<path style="fill:#9FC6FF;" d="M214.667,194.667c0,0-20.494,46.896-33.744,73.583c-10.702,21.555-63.053,37.147-63.053,37.147
				l-4.124-9.638c0,0,39.101-17.617,46.491-32.235c23.652-46.787,17.82-66.066,31.422-76.232L214.667,194.667z"/>
			<polygon style="fill:#0053CC;" points="117.998,306.603 112.822,294.505 117.341,291.777 122.75,305.522 			"/>
			<path style="fill:#0053CC;" d="M191.764,185.422l-2.164,2.218c-0.168,0.172,0.009,0.457,0.349,0.565l30.908,9.779
				c0.266,0.084,0.527,0.024,0.597-0.138l1.101-2.554c0.076-0.177-0.105-0.404-0.396-0.497l-29.844-9.442
				C192.095,185.283,191.872,185.312,191.764,185.422z"/>
			<path style="fill:#9FC6FF;" d="M194.717,190.028l-0.799-0.253c-0.159-0.05-0.255-0.171-0.212-0.268l1.459-3.309
				c0.043-0.097,0.208-0.135,0.367-0.085l0.799,0.253c0.159,0.05,0.255,0.171,0.212,0.268l-1.459,3.309
				C195.041,190.04,194.876,190.078,194.717,190.028z"/>
			<path style="fill:#9FC6FF;" d="M218.521,197.559l-0.799-0.253c-0.159-0.05-0.255-0.171-0.212-0.268l1.459-3.309
				c0.043-0.097,0.208-0.135,0.367-0.085l0.799,0.253c0.159,0.05,0.255,0.171,0.212,0.268l-1.459,3.309
				C218.845,197.571,218.68,197.609,218.521,197.559z"/>
			<path style="fill:#9FC6FF;" d="M206.619,193.793l-0.799-0.253c-0.159-0.05-0.254-0.171-0.212-0.268l1.459-3.309
				c0.043-0.097,0.208-0.135,0.367-0.085l0.799,0.253c0.159,0.05,0.254,0.171,0.212,0.268l-1.459,3.309
				C206.943,193.806,206.778,193.844,206.619,193.793z"/>
			<path style="fill:#0F264C;" d="M231.275,125.508c-0.24,0.565-0.134,1.15,0.235,1.307c0.37,0.157,0.863-0.175,1.103-0.74
				c0.24-0.565,0.134-1.15-0.235-1.307C232.008,124.612,231.515,124.943,231.275,125.508z"/>
			<path style="fill:#0F264C;" d="M237.664,128.216c-0.24,0.565-0.134,1.15,0.235,1.307c0.37,0.157,0.863-0.175,1.103-0.74
				c0.24-0.565,0.134-1.15-0.235-1.307C238.397,127.32,237.903,127.651,237.664,128.216z"/>
			<path style="fill:#0F264C;" d="M238.59,127.439l1.523,0.184C240.113,127.623,238.967,128.388,238.59,127.439z"/>
			<path style="fill:#FF5652;" d="M235.563,128.472c0,0-0.072,2.84,0.486,4.462c-1.041,0.38-2.175-0.476-2.175-0.476
				L235.563,128.472z"/>
			<path style="fill:#0F264C;" d="M231.011,133.854c-0.023,0-0.047-0.004-0.07-0.014c-2.66-1.127-3.105-3.467-3.122-3.566
				c-0.018-0.098,0.047-0.191,0.146-0.209c0.1-0.019,0.191,0.048,0.209,0.146c0.004,0.022,0.435,2.249,2.909,3.298
				c0.092,0.039,0.134,0.145,0.096,0.236C231.148,133.813,231.081,133.854,231.011,133.854z"/>
			<path style="fill:#0F264C;" d="M230.364,122.66c-0.125,0-0.246-0.064-0.313-0.181c-0.099-0.172-0.04-0.393,0.133-0.492
				c1.73-0.995,3.221-0.256,3.283-0.225c0.178,0.09,0.248,0.308,0.158,0.485c-0.09,0.177-0.306,0.247-0.483,0.159
				c-0.05-0.025-1.219-0.588-2.598,0.206C230.487,122.645,230.425,122.66,230.364,122.66z"/>
			<path style="fill:#0F264C;" d="M241.953,126.53c-0.17,0-0.321-0.121-0.354-0.293c-0.298-1.58-1.52-2.101-1.532-2.105
				c-0.184-0.076-0.272-0.287-0.196-0.471c0.077-0.184,0.287-0.272,0.471-0.196c0.065,0.027,1.597,0.679,1.967,2.639
				c0.037,0.196-0.092,0.384-0.288,0.421C241.998,126.528,241.975,126.53,241.953,126.53z"/>
			<path style="fill:#FF8B7B;" d="M200.745,153.304c-0.929,1.166-1.786,2.142-2.719,3.158c-0.922,0.998-1.858,1.978-2.816,2.936
				c-1.935,1.898-3.952,3.715-6.067,5.435c-2.109,1.728-4.331,3.332-6.669,4.8c-0.571,0.381-1.186,0.713-1.777,1.071
				c-0.593,0.356-1.192,0.703-1.817,1.018c-0.635,0.327-1.196,0.643-1.89,0.975l-1.124,0.498l-1.132,0.398
				c-3.033,0.952-5.998,1.104-8.832,1.022c-2.834-0.139-5.572-0.526-8.231-1.125c-2.659-0.595-5.247-1.345-7.788-2.194
				c-2.536-0.908-4.992-1.843-7.461-3.037l1.438-3.576c2.384,0.688,4.887,1.353,7.358,1.865c2.471,0.55,4.956,0.997,7.426,1.285
				c2.469,0.285,4.921,0.461,7.294,0.373c1.181-0.046,2.339-0.146,3.45-0.325c1.103-0.192,2.15-0.476,3.108-0.822l0.698-0.282
				l0.645-0.327c0.467-0.252,1.025-0.605,1.532-0.901c0.524-0.298,1.033-0.632,1.538-0.975c0.504-0.345,1.023-0.656,1.514-1.027
				c2.006-1.402,3.905-2.991,5.801-4.584c1.887-1.608,3.69-3.336,5.439-5.114c0.883-0.88,1.747-1.781,2.592-2.693
				c0.823-0.905,1.696-1.874,2.417-2.721L200.745,153.304z"/>
			<path style="fill:#FF8B7B;" d="M146.222,165.841l-3.867-5.59l-3.899,6.933c0,0,3.642,2.191,6.751,1.605L146.222,165.841z"/>
			<polygon style="fill:#FF8B7B;" points="135.945,158.329 134.011,164.016 138.457,167.184 142.356,160.251 			"/>
			<path style="fill:#0F264C;" d="M200.357,141.631c-3.83-0.173-11.357,9.239-11.357,9.239l8.065,11.408
				c0,0,8.533-7.333,9.213-12.222C206.855,145.905,205.236,141.852,200.357,141.631z"/>
			<path style="fill:#407BFF;" d="M108.118,311.145c-0.351,0-0.626-0.123-0.82-0.367c-0.601-0.756-0.188-2.493,0.112-3.461
				c0.021-0.068,0.081-0.118,0.153-0.126c0.07-0.003,0.141,0.028,0.176,0.091c0.153,0.272,1.483,2.68,1.023,3.536
				c-0.073,0.136-0.224,0.302-0.53,0.323C108.193,311.144,108.155,311.145,108.118,311.145z M107.632,307.844
				c-0.354,1.304-0.376,2.302-0.052,2.71c0.138,0.174,0.343,0.247,0.626,0.228c0.153-0.011,0.208-0.077,0.238-0.135
				C108.687,310.196,108.136,308.822,107.632,307.844z"/>
			<path style="fill:#407BFF;" d="M110.096,309.588c-0.88,0-2.328-1.414-2.676-2.14c-0.028-0.058-0.022-0.126,0.013-0.18
				c0.036-0.053,0.102-0.076,0.162-0.078c0.093,0.006,2.278,0.167,2.953,1.042c0.179,0.233,0.243,0.495,0.188,0.778
				c-0.086,0.446-0.377,0.549-0.543,0.57C110.161,309.585,110.129,309.588,110.096,309.588z M107.919,307.585
				c0.527,0.762,1.7,1.729,2.227,1.639c0.087-0.011,0.192-0.053,0.235-0.281c0.035-0.18-0.004-0.34-0.119-0.489
				C109.86,307.931,108.644,307.677,107.919,307.585z"/>
			<path style="fill:#407BFF;" d="M181.926,346.021c-0.87,0-1.814-0.168-2.469-0.314c-0.075-0.017-0.132-0.079-0.14-0.156
				c-0.008-0.076,0.033-0.15,0.102-0.183c0.609-0.286,3.686-1.677,4.502-1.128c0.112,0.076,0.242,0.223,0.227,0.491
				c-0.021,0.36-0.175,0.652-0.458,0.867C183.275,345.912,182.624,346.021,181.926,346.021z M180.079,345.466
				c1.617,0.299,2.864,0.246,3.394-0.155c0.198-0.149,0.301-0.346,0.315-0.6c0.006-0.105-0.031-0.145-0.068-0.171
				C183.276,344.238,181.426,344.88,180.079,345.466z"/>
			<path style="fill:#407BFF;" d="M179.496,345.712c-0.042,0-0.083-0.015-0.117-0.043c-0.051-0.044-0.074-0.112-0.059-0.178
				c0.032-0.14,0.786-3.395,2.586-3.186c0.464,0.056,0.592,0.289,0.617,0.476c0.115,0.852-1.939,2.5-2.959,2.917
				C179.542,345.707,179.519,345.712,179.496,345.712z M181.742,342.656c-1.083,0-1.731,1.753-1.967,2.54
				c1.038-0.57,2.458-1.872,2.392-2.366c-0.012-0.088-0.114-0.145-0.303-0.167C181.822,342.658,181.782,342.656,181.742,342.656z"/>
			<path style="fill:#0F264C;" d="M232.201,124.73l1.523,0.184C233.725,124.914,232.579,125.68,232.201,124.73z"/>
		</g>
	</g>
</g>
</svg>
